<svg xmlns="http://www.w3.org/2000/svg" xmlns:xlink="http://www.w3.org/1999/xlink"><symbol id="icon-detective" viewBox="0 0 31 26">
<path d="M15.7697 8.18542C15.443 8.18542 15.1777 8.45125 15.1777 8.77924C15.1777 9.107 15.443 9.37306 15.7697 9.37306C16.0964 9.37306 16.3617 9.107 16.3617 8.77924C16.3617 8.45125 16.0964 8.18542 15.7697 8.18542Z" fill="#00B2FF"/>
<path d="M29.148 11.7484H26.8446C25.6304 8.27037 23.8686 2.17193 20.6771 0.445918C19.0809 -0.416274 17.5721 0.185892 17.0046 1.40924C16.7632 1.9293 16.2811 2.20278 15.7696 2.20278C15.2511 2.20278 14.7729 1.92327 14.5345 1.40971C13.9872 0.228109 12.5144 -0.429264 10.9742 0.32066C7.73154 1.9003 5.91819 8.24415 4.69448 11.7484H2.39113C1.40999 11.7484 0.615234 12.5454 0.615234 13.5298C0.615234 14.5119 1.41184 15.3113 2.39113 15.3113H29.148C30.1291 15.3113 30.9239 14.514 30.9239 13.5298C30.9239 12.5475 30.1273 11.7484 29.148 11.7484ZM6.77399 9.3731H13.4017C13.7287 9.3731 13.9937 9.10704 13.9937 8.77928C13.9937 8.45129 13.7287 8.18547 13.4017 8.18547H7.18791C8.97236 3.24079 10.6393 1.80404 11.4912 1.38906C12.4206 0.936744 13.1855 1.3153 13.4611 1.91051C13.8954 2.84623 14.7937 3.39041 15.7696 3.39041C16.7477 3.39041 17.6449 2.84414 18.078 1.91051C18.3617 1.29837 19.1306 0.959476 20.1154 1.49136C20.9712 1.95435 22.6331 3.43889 24.351 8.18547H18.1374C17.8105 8.18547 17.5455 8.45129 17.5455 8.77928C17.5455 9.10727 17.8105 9.3731 18.1374 9.3731H24.7654C25.0646 10.2388 25.3754 11.132 25.5904 11.7484H5.94894C6.1633 11.1337 6.47338 10.2425 6.77399 9.3731ZM29.148 14.1236H2.39113C2.06463 14.1236 1.79917 13.8571 1.79917 13.5298C1.79917 13.2018 2.06416 12.936 2.39113 12.936H29.148C29.4745 12.936 29.74 13.2023 29.74 13.5298C29.74 13.8576 29.4747 14.1236 29.148 14.1236Z" fill="#00B2FF"/>
<path d="M14.5859 17.6866H5.11443C4.78746 17.6866 4.52246 17.9525 4.52246 18.2804V20.6557C4.52246 23.6025 6.91252 26.0001 9.85015 26.0001C12.076 26.0001 14.0462 24.6266 14.8298 22.5575C15.425 22.2852 16.1146 22.2852 16.7098 22.5575C17.4935 24.6266 19.4636 25.9998 21.6895 25.9998C24.6271 25.9998 27.0172 23.6025 27.0172 20.6555V18.2802C27.0172 17.9522 26.7522 17.6864 26.4252 17.6864H16.9537C16.6268 17.6864 16.3618 17.9522 16.3618 18.2802V18.874H15.1778V18.2802C15.1778 17.9525 14.9129 17.6866 14.5859 17.6866ZM9.85015 24.8124C7.5653 24.8124 5.70639 22.9477 5.70639 20.6557V18.8743H13.9939V20.6557C13.9939 22.9537 12.1449 24.8124 9.85015 24.8124ZM17.5457 18.8743H25.8332V20.6557C25.8332 22.9477 23.9743 24.8124 21.6895 24.8124C19.3889 24.8124 17.5457 22.9482 17.5457 20.6557V18.8743ZM16.3618 20.0619V20.6557C16.3618 20.8455 16.3726 21.0345 16.3923 21.2222C15.9809 21.1468 15.5587 21.1468 15.1473 21.2222C15.167 21.0345 15.1778 20.8455 15.1778 20.6557V20.0619H16.3618Z" fill="#00B2FF"/>
<path d="M9.84997 22.437C8.87068 22.437 8.07407 21.6377 8.07407 20.6556C8.07407 20.3276 7.80907 20.0618 7.4821 20.0618C7.15513 20.0618 6.89014 20.3276 6.89014 20.6556C6.89014 22.2925 8.2179 23.6247 9.84997 23.6247C10.1769 23.6247 10.4419 23.3586 10.4419 23.0308C10.4419 22.7029 10.1769 22.437 9.84997 22.437Z" fill="#00B2FF"/>
<path d="M21.6896 23.6247C23.3217 23.6247 24.6495 22.2925 24.6495 20.6556C24.6495 20.3276 24.3845 20.0618 24.0575 20.0618C23.7305 20.0618 23.4655 20.3276 23.4655 20.6556C23.4655 21.6377 22.6689 22.437 21.6896 22.437C21.3627 22.437 21.0977 22.7029 21.0977 23.0308C21.0977 23.3586 21.3627 23.6247 21.6896 23.6247Z" fill="#00B2FF"/>
</symbol><symbol id="icon-fb" viewBox="0 0 27 27">
<path fill-rule="evenodd" clip-rule="evenodd" d="M27 13.5C27 6.04462 20.9562 0 13.5 0C6.04379 0 0 6.04462 0 13.5C0 20.9562 6.04369 27 13.5 27C20.9562 27 27 20.9563 27 13.5ZM16.8836 9.29395H15.1437C14.6754 9.29395 14.3464 9.69053 14.3464 10.185V10.9604H16.8312L16.4288 13.4772H14.3455V20.2238H11.8025V13.4772H10.115V10.9604H11.8025V9.677H11.8075C11.8523 8.21392 12.3602 6.82092 14.8383 6.73315V6.72388H16.8836V9.29395Z" fill="#CDCDCD"/>
</symbol><symbol id="icon-hired" viewBox="0 0 32 32">
<path d="M28.5547 25.5023C28.8947 25.0283 29.0958 24.4466 29.0958 23.8181V20.0625C29.0958 19.7173 28.8184 19.4375 28.4763 19.4375H25.7076C24.4276 19.4375 23.3863 20.488 23.3863 21.7793V23.8181C23.3863 24.4462 23.5872 25.0274 23.9268 25.5013C23.5033 25.5706 23.0958 25.7075 22.7158 25.9079C21.8551 24.6121 20.4448 23.7185 18.8243 23.5678C18.818 23.5659 18.8115 23.5646 18.8052 23.5631C19.385 22.9099 19.7384 22.0481 19.7384 21.1044V16C19.7384 15.6548 19.461 15.375 19.1189 15.375H15.3558C13.7389 15.375 12.4235 16.7021 12.4235 18.3333V21.1043C12.4235 22.0481 12.7769 22.9098 13.3567 23.563C13.3503 23.5646 13.3439 23.5659 13.3376 23.5677C11.7168 23.7184 10.3066 24.6122 9.44586 25.9081C9.06573 25.7078 8.65821 25.5708 8.23489 25.5015C8.57451 25.0276 8.77554 24.4463 8.77554 23.8181V20.0625C8.77554 19.7173 8.49812 19.4375 8.15602 19.4375H5.38726C4.10733 19.4375 3.06603 20.488 3.06603 21.7793V23.8181C3.06603 24.4466 3.26719 25.0283 3.60719 25.5023C1.68958 25.8185 0.221191 27.5009 0.221191 29.5235V31.375C0.221191 31.7202 0.498613 32 0.840713 32H31.3212C31.6633 32 31.9407 31.7202 31.9407 31.375V29.5235C31.9407 27.5009 30.4723 25.8185 28.5547 25.5023ZM4.30508 21.7793C4.30508 21.1773 4.79053 20.6875 5.38726 20.6875H7.5365V21.4487C7.5365 21.8219 7.23554 22.1256 6.86562 22.1256H4.30508V21.7793ZM4.30508 23.3755H6.86562C7.10166 23.3755 7.32766 23.3318 7.5365 23.2524V23.8181C7.5365 24.7169 6.81172 25.4481 5.92079 25.4481C5.02985 25.4481 4.30508 24.7169 4.30508 23.8181V23.3755ZM6.32019 26.6981L5.92079 27.1011L5.52138 26.6981H6.32019ZM8.55698 28.8585V30.75H1.46023V29.5235C1.46023 28.1216 2.47767 26.9555 3.80655 26.7359L5.48272 28.4269C5.59895 28.5441 5.75649 28.61 5.92079 28.61C6.08509 28.61 6.24263 28.5441 6.35885 28.4269L8.03552 26.7353C8.33166 26.784 8.61645 26.8803 8.88185 27.0211C8.67196 27.594 8.55698 28.213 8.55698 28.8585ZM16.081 23.5442C14.7475 23.5442 13.6626 22.4497 13.6626 21.1044V20.2783H17.3651C17.7756 20.2783 18.1622 20.1725 18.4994 19.9866V21.1044C18.4994 22.4497 17.4145 23.5442 16.081 23.5442ZM17.1609 24.7941L16.0809 25.8836L15.001 24.7941H17.1609ZM13.6625 18.3333H13.6625C13.6625 17.3913 14.4221 16.625 15.3558 16.625H18.4994V17.884C18.4994 18.515 17.9905 19.0284 17.365 19.0284H13.6625V18.3333ZM22.3658 30.75H21.161H11.0009H9.79608V29.5H13.83C14.1721 29.5 14.4496 29.2202 14.4496 28.875C14.4496 28.5298 14.1721 28.25 13.83 28.25H9.84137C10.1069 26.4737 11.5163 25.0715 13.2858 24.8316L15.6429 27.2095C15.7639 27.3315 15.9224 27.3925 16.0809 27.3925C16.2395 27.3925 16.398 27.3315 16.519 27.2095L18.876 24.8316C20.8434 25.0983 22.3658 26.8019 22.3658 28.8585V30.75ZM24.6254 21.7793C24.6254 21.1773 25.1108 20.6875 25.7076 20.6875H27.8568V21.4487C27.8568 21.8219 27.5558 22.1256 27.1859 22.1256H24.6254V21.7793ZM24.6254 23.3755H27.1859C27.422 23.3755 27.648 23.3318 27.8568 23.2524V23.8181C27.8568 24.7169 27.132 25.4481 26.2411 25.4481C25.3502 25.4481 24.6254 24.7169 24.6254 23.8181V23.3755ZM26.6405 26.6981L26.2411 27.1011L25.8417 26.6981H26.6405ZM23.6048 30.75V28.8585C23.6048 28.2129 23.4899 27.594 23.2799 27.021C23.5452 26.88 23.8299 26.7838 24.1261 26.7352L25.803 28.4269C25.9192 28.5441 26.0767 28.61 26.241 28.61C26.4053 28.61 26.5629 28.5441 26.6791 28.4269L28.3553 26.7359C29.6841 26.9556 30.7016 28.1216 30.7016 29.5235V30.75H23.6048Z" fill="#00B2FF"/>
<path d="M19.1336 4.08356C18.8917 3.8395 18.4995 3.8395 18.2575 4.08356L15.2175 7.1505L13.9033 5.82469C13.6613 5.58056 13.2691 5.58056 13.0271 5.82462C12.7852 6.06869 12.7852 6.46444 13.0271 6.70856L14.7794 8.47632C14.8956 8.5935 15.0532 8.65938 15.2175 8.65938C15.3818 8.65938 15.5393 8.5935 15.6555 8.47632L19.1336 4.96744C19.3756 4.72337 19.3756 4.32762 19.1336 4.08356Z" fill="#00B2FF"/>
<path d="M18.6144 0.541883C18.3019 0.40132 17.9356 0.542883 17.7962 0.858133C17.6568 1.17338 17.7972 1.54295 18.1097 1.68351C19.9063 2.49182 21.0671 4.29601 21.0671 6.27989C21.0671 9.05339 18.8305 11.3098 16.0813 11.3098C13.3321 11.3098 11.0954 9.05339 11.0954 6.27989C11.0954 4.30626 12.2479 2.50582 14.0315 1.69313C14.3433 1.55107 14.482 1.18082 14.3411 0.866258C14.2003 0.551633 13.8331 0.41182 13.5215 0.553883C11.2951 1.56838 9.85645 3.81595 9.85645 6.27983C9.85638 9.74264 12.6489 12.5598 16.0813 12.5598C19.5137 12.5598 22.3062 9.74264 22.3062 6.27989C22.3062 3.8032 20.857 1.55088 18.6144 0.541883Z" fill="#00B2FF"/>
<path d="M16.1031 0H16.0809C15.7388 0 15.4614 0.279813 15.4614 0.625001C15.4614 0.970189 15.7388 1.25 16.0809 1.25H16.0973C16.0983 1.25 16.0992 1.25 16.1003 1.25C16.4411 1.25 16.7181 0.972126 16.7197 0.627938C16.7213 0.28275 16.4453 0.001625 16.1031 0Z" fill="#00B2FF"/>
<path d="M16.5189 28.433C16.4037 28.3168 16.2439 28.2499 16.0809 28.2499C15.918 28.2499 15.7582 28.3168 15.6429 28.433C15.5277 28.5493 15.4614 28.7105 15.4614 28.8749C15.4614 29.0393 15.5277 29.2005 15.6429 29.3168C15.7582 29.433 15.918 29.4999 16.0809 29.4999C16.2439 29.4999 16.4037 29.433 16.5189 29.3168C16.6341 29.2005 16.7005 29.0393 16.7005 28.8749C16.7005 28.7105 16.6342 28.5493 16.5189 28.433Z" fill="#00B2FF"/>
</symbol><symbol id="icon-logo-img" viewBox="0 0 52 52">
<path d="M32.0668 13.8665C33.1952 13.8665 34.1485 14.5936 34.5073 15.5998H43.4929C43.8517 14.5936 44.805 13.8665 45.9334 13.8665C47.3669 13.8665 48.5334 15.033 48.5334 16.4664C48.5334 17.8999 47.3669 19.0664 45.9334 19.0664C44.805 19.0664 43.8517 18.3392 43.4929 17.3331H34.5064C34.1476 18.3392 33.1943 19.0664 32.0659 19.0664C30.6324 19.0664 29.4659 17.8999 29.4659 16.4664C29.4659 15.033 30.6333 13.8665 32.0668 13.8665ZM45.9334 17.3331C46.411 17.3331 46.8001 16.9448 46.8001 16.4664C46.8001 15.988 46.411 15.5998 45.9334 15.5998C45.4559 15.5998 45.0668 15.988 45.0668 16.4664C45.0668 16.9448 45.4559 17.3331 45.9334 17.3331ZM32.0668 17.3331C32.5443 17.3331 32.9334 16.9448 32.9334 16.4664C32.9334 15.988 32.5443 15.5998 32.0668 15.5998C31.5892 15.5998 31.2001 15.988 31.2001 16.4664C31.2001 16.9448 31.5892 17.3331 32.0668 17.3331Z" fill="#00B2FF"/>
<path d="M25.1333 19.2259V13.8665C25.1333 13.636 25.2243 13.4158 25.3872 13.2538L28.8539 9.78716C29.0159 9.62423 29.2369 9.53323 29.4666 9.53323H32.2261C32.5849 8.52705 33.5382 7.79993 34.6666 7.79993C36.1001 7.79993 37.2666 8.96644 37.2666 10.3999C37.2666 11.8333 36.1001 12.9998 34.6666 12.9998C33.5382 12.9998 32.5849 12.2727 32.2261 11.2665H29.8254L26.8666 14.2253V19.2259C27.8728 19.5847 28.5999 20.538 28.5999 21.6664C28.5999 23.0998 27.4334 24.2663 25.9999 24.2663C24.5665 24.2663 23.3999 23.0998 23.3999 21.6664C23.3999 20.538 24.1271 19.5847 25.1333 19.2259ZM34.6666 11.2665C35.1441 11.2665 35.5333 10.8783 35.5333 10.3999C35.5333 9.92149 35.1441 9.53323 34.6666 9.53323C34.1891 9.53323 33.7999 9.92149 33.7999 10.3999C33.7999 10.8783 34.1891 11.2665 34.6666 11.2665ZM25.9999 22.533C26.4775 22.533 26.8666 22.1448 26.8666 21.6664C26.8666 21.188 26.4775 20.7997 25.9999 20.7997C25.5224 20.7997 25.1333 21.188 25.1333 21.6664C25.1333 22.1448 25.5224 22.533 25.9999 22.533Z" fill="#00B2FF"/>
<path d="M9.53333 22.533C9.93373 22.533 10.3081 22.6309 10.647 22.7938L12.1333 21.3075V12.9998C12.1333 12.7693 12.2243 12.5491 12.3873 12.3871L21.0609 3.7136C20.8979 3.37474 20.8 3.00035 20.8 2.59996C20.8 1.16651 21.9665 0 23.4 0C24.8335 0 26 1.16651 26 2.59996C26 4.0334 24.8335 5.19991 23.4 5.19991C22.9996 5.19991 22.6252 5.10198 22.2863 4.93905L13.8667 13.3586V21.6663C13.8667 21.8968 13.7757 22.117 13.6127 22.279L11.8725 24.0193C12.0354 24.3581 12.1333 24.7325 12.1333 25.1329C12.1333 26.5664 10.9668 27.7329 9.53333 27.7329C8.09986 27.7329 6.93333 26.5664 6.93333 25.1329C6.93333 23.6995 8.09986 22.533 9.53333 22.533ZM23.4 3.46661C23.8775 3.46661 24.2667 3.07835 24.2667 2.59996C24.2667 2.12156 23.8775 1.7333 23.4 1.7333C22.9225 1.7333 22.5333 2.12156 22.5333 2.59996C22.5333 3.07835 22.9225 3.46661 23.4 3.46661ZM9.53333 25.9996C10.0109 25.9996 10.4 25.6113 10.4 25.1329C10.4 24.6545 10.0109 24.2663 9.53333 24.2663C9.0558 24.2663 8.66667 24.6545 8.66667 25.1329C8.66667 25.6113 9.0558 25.9996 9.53333 25.9996Z" fill="#00B2FF"/>
<path d="M1.73328 12.2926V8.66652C1.73328 8.43599 1.82428 8.21586 1.98722 8.0538L8.05388 1.98723C8.21595 1.8243 8.43695 1.7333 8.66662 1.7333H13.1594C13.5182 0.727121 14.4716 0 15.6 0C17.0334 0 18.2 1.16651 18.2 2.59996C18.2 4.0334 17.0334 5.19991 15.6 5.19991C14.4716 5.19991 13.5182 4.47279 13.1594 3.46661H9.02542L3.46662 9.02532V12.2926C4.47282 12.6514 5.19995 13.6047 5.19995 14.7331C5.19995 16.1665 4.03342 17.333 2.59995 17.333C1.16648 17.333 -4.95911e-05 16.1665 -4.95911e-05 14.7331C-4.95911e-05 13.6047 0.727085 12.6514 1.73328 12.2926ZM15.6 3.46661C16.0775 3.46661 16.4666 3.07835 16.4666 2.59996C16.4666 2.12156 16.0775 1.7333 15.6 1.7333C15.1224 1.7333 14.7333 2.12156 14.7333 2.59996C14.7333 3.07835 15.1224 3.46661 15.6 3.46661ZM2.59995 15.5997C3.07748 15.5997 3.46662 15.2115 3.46662 14.7331C3.46662 14.2547 3.07748 13.8664 2.59995 13.8664C2.12242 13.8664 1.73328 14.2547 1.73328 14.7331C1.73328 15.2115 2.12242 15.5997 2.59995 15.5997Z" fill="#00B2FF"/>
<path d="M13.8658 46.9595V34.5066C12.8604 34.1478 12.1333 33.1945 12.1333 32.0661C12.1333 30.6327 13.2998 29.4661 14.7333 29.4661C15.8617 29.4661 16.815 30.1933 17.1738 31.1995H26.1594C26.5182 30.1933 27.4716 29.4661 28.6 29.4661C29.7284 29.4661 30.6817 30.1933 31.0405 31.1995H36.0412L39.2608 27.9798C39.0979 27.641 39 27.2666 39 26.8662C39 25.4327 40.1665 24.2662 41.6 24.2662C43.0334 24.2662 44.2 25.4327 44.2 26.8662C44.2 28.2996 43.0334 29.4661 41.6 29.4661C41.1996 29.4661 40.8252 29.3682 40.4863 29.2053L37.0127 32.6788C36.8506 32.8418 36.6296 32.9328 36.4 32.9328H31.0405C30.6817 33.9389 29.7284 34.6661 28.6 34.6661C27.4716 34.6661 26.5182 33.9389 26.1594 32.9328H17.173C16.9112 33.6668 16.3332 34.2449 15.5991 34.5066V46.9595C16.6053 47.3183 17.3324 48.2716 17.3324 49.4C17.3324 50.8335 16.1659 52 14.7324 52C13.299 52 12.1324 50.8335 12.1324 49.4C12.1324 48.2716 12.8596 47.3183 13.8658 46.9595ZM41.6 27.7328C42.0775 27.7328 42.4666 27.3446 42.4666 26.8662C42.4666 26.3878 42.0775 25.9995 41.6 25.9995C41.1224 25.9995 40.7333 26.3878 40.7333 26.8662C40.7333 27.3446 41.1224 27.7328 41.6 27.7328ZM28.6 32.9328C29.0775 32.9328 29.4666 32.5445 29.4666 32.0661C29.4666 31.5877 29.0775 31.1995 28.6 31.1995C28.1224 31.1995 27.7333 31.5877 27.7333 32.0661C27.7333 32.5445 28.1224 32.9328 28.6 32.9328ZM14.7333 50.2658C15.2108 50.2658 15.6 49.8775 15.6 49.3991C15.6 48.9208 15.2108 48.5325 14.7333 48.5325C14.2558 48.5325 13.8666 48.9208 13.8666 49.3991C13.8666 49.8775 14.2558 50.2658 14.7333 50.2658ZM14.7333 32.9328C15.2108 32.9328 15.6 32.5445 15.6 32.0661C15.6 31.5877 15.2108 31.1995 14.7333 31.1995C14.2558 31.1995 13.8666 31.5877 13.8666 32.0661C13.8666 32.5445 14.2558 32.9328 14.7333 32.9328Z" fill="#00B2FF"/>
<path d="M18.2 17.4925V14.7331C18.2 14.5026 18.291 14.2824 18.4539 14.1204L28.8609 3.7136C28.6979 3.37474 28.6 3.00035 28.6 2.59996C28.6 1.16651 29.7665 0 31.2 0C32.3284 0 33.2817 0.727121 33.6405 1.7333H37.2667C37.7451 1.7333 38.1333 2.1207 38.1333 2.59996V4.84112L41.353 8.06073C41.6919 7.8978 42.0663 7.79987 42.4667 7.79987C43.9001 7.79987 45.0667 8.96638 45.0667 10.3998C45.0667 11.8333 43.9001 12.9998 42.4667 12.9998C41.0332 12.9998 39.8667 11.8333 39.8667 10.3998C39.8667 9.99943 39.9646 9.62504 40.1275 9.28618L36.6539 5.81264C36.491 5.65057 36.4 5.43044 36.4 5.19991V3.46661H33.6405C33.2817 4.47279 32.3284 5.19991 31.2 5.19991C30.7996 5.19991 30.4252 5.10198 30.0863 4.93905L19.9333 15.0919V17.4925C20.9395 17.8513 21.6667 18.8046 21.6667 19.933C21.6667 21.3664 20.5001 22.533 19.0667 22.533C17.6332 22.533 16.4667 21.3664 16.4667 19.933C16.4667 18.8046 17.1938 17.8513 18.2 17.4925ZM42.4667 11.2665C42.9442 11.2665 43.3333 10.8782 43.3333 10.3998C43.3333 9.92143 42.9442 9.53317 42.4667 9.53317C41.9891 9.53317 41.6 9.92143 41.6 10.3998C41.6 10.8782 41.9891 11.2665 42.4667 11.2665ZM31.2 3.46661C31.6775 3.46661 32.0667 3.07835 32.0667 2.59996C32.0667 2.12156 31.6775 1.7333 31.2 1.7333C30.7225 1.7333 30.3333 2.12156 30.3333 2.59996C30.3333 3.07835 30.7225 3.46661 31.2 3.46661ZM19.0667 20.7997C19.5442 20.7997 19.9333 20.4114 19.9333 19.933C19.9333 19.4546 19.5442 19.0663 19.0667 19.0663C18.5891 19.0663 18.2 19.4546 18.2 19.933C18.2 20.4114 18.5891 20.7997 19.0667 20.7997Z" fill="#00B2FF"/>
<path d="M20.8 24.2663C21.9284 24.2663 22.8817 24.9934 23.2405 25.9996H33.4412L38.3873 21.0536C38.5493 20.8906 38.7703 20.7997 39 20.7997H48.1745L50.2667 18.7076V11.6253L43.5803 4.93905C43.2415 5.10198 42.8671 5.19991 42.4667 5.19991C41.0332 5.19991 39.8667 4.0334 39.8667 2.59996C39.8667 1.16651 41.0332 0 42.4667 0C43.9001 0 45.0667 1.16651 45.0667 2.59996C45.0667 3.00035 44.9687 3.37474 44.8058 3.7136L51.7461 10.6538C51.909 10.8158 52 11.0359 52 11.2665V19.0663C52 19.2969 51.909 19.517 51.7461 19.6791L49.1461 22.279C48.984 22.442 48.763 22.533 48.5333 22.533H39.3588L34.4127 27.4789C34.2507 27.6419 34.0297 27.7329 33.8 27.7329H23.2405C22.8817 28.7391 21.9284 29.4662 20.8 29.4662C19.3665 29.4662 18.2 28.2997 18.2 26.8662C18.2 25.4328 19.3665 24.2663 20.8 24.2663ZM42.4667 1.7333C41.9891 1.7333 41.6 2.12156 41.6 2.59996C41.6 3.07835 41.9891 3.46661 42.4667 3.46661C42.9442 3.46661 43.3333 3.07835 43.3333 2.59996C43.3333 2.12156 42.9442 1.7333 42.4667 1.7333ZM20.8 27.7329C21.2775 27.7329 21.6667 27.3446 21.6667 26.8662C21.6667 26.3878 21.2775 25.9996 20.8 25.9996C20.3225 25.9996 19.9333 26.3878 19.9333 26.8662C19.9333 27.3446 20.3225 27.7329 20.8 27.7329Z" fill="#00B2FF"/>
<path d="M2.59997 20.7997C3.00037 20.7997 3.37477 20.8976 3.71363 21.0606L6.9333 17.841V12.8404C5.9271 12.4816 5.19997 11.5283 5.19997 10.3999C5.19997 8.96644 6.3665 7.79993 7.79997 7.79993C9.23343 7.79993 10.4 8.96644 10.4 10.3999C10.4 11.5283 9.67283 12.4816 8.66663 12.8404V18.1998C8.66663 18.4303 8.57563 18.6504 8.4127 18.8125L4.9391 22.286C5.10204 22.6249 5.19997 22.9993 5.19997 23.3997C5.19997 24.528 4.47283 25.4814 3.46663 25.8402V26.5075L10.146 33.1868C10.309 33.3488 10.4 33.569 10.4 33.7995V34.8256C11.4062 35.1844 12.1333 36.1377 12.1333 37.2661C12.1333 38.3945 11.4062 39.3478 10.4 39.7066V41.7597C11.4062 42.1185 12.1333 43.0718 12.1333 44.2002C12.1333 45.6336 10.9668 46.8001 9.5333 46.8001C8.09983 46.8001 6.9333 45.6336 6.9333 44.2002C6.9333 43.0718 7.66043 42.1185 8.66663 41.7597V39.7066C7.66043 39.3478 6.9333 38.3945 6.9333 37.2661C6.9333 36.1377 7.66043 35.1844 8.66663 34.8256V34.1583L1.98723 27.479C1.8243 27.3169 1.7333 27.0968 1.7333 26.8663V25.8402C0.7271 25.4814 -3.24249e-05 24.528 -3.24249e-05 23.3997C-3.24249e-05 21.9662 1.1665 20.7997 2.59997 20.7997ZM7.79997 11.2665C8.2775 11.2665 8.66663 10.8783 8.66663 10.3999C8.66663 9.92149 8.2775 9.53323 7.79997 9.53323C7.32243 9.53323 6.9333 9.92149 6.9333 10.3999C6.9333 10.8783 7.32243 11.2665 7.79997 11.2665ZM9.5333 45.066C10.0108 45.066 10.4 44.6777 10.4 44.1993C10.4 43.7209 10.0108 43.3327 9.5333 43.3327C9.05577 43.3327 8.66663 43.7209 8.66663 44.1993C8.66663 44.6777 9.05577 45.066 9.5333 45.066ZM9.5333 38.1328C10.0108 38.1328 10.4 37.7445 10.4 37.2661C10.4 36.7877 10.0108 36.3995 9.5333 36.3995C9.05577 36.3995 8.66663 36.7877 8.66663 37.2661C8.66663 37.7445 9.05577 38.1328 9.5333 38.1328ZM2.59997 24.2663C3.0775 24.2663 3.46663 23.8781 3.46663 23.3997C3.46663 22.9213 3.0775 22.533 2.59997 22.533C2.12243 22.533 1.7333 22.9213 1.7333 23.3997C1.7333 23.8781 2.12243 24.2663 2.59997 24.2663Z" fill="#00B2FF"/>
</symbol><symbol id="icon-logo-text" viewBox="0 0 134 45">
<path d="M8.95996 18.3247C8.95996 18.0073 8.93148 17.7184 8.87451 17.458C8.81755 17.1976 8.69548 16.9575 8.5083 16.7378C8.32926 16.5181 8.06478 16.2983 7.71484 16.0786C7.37305 15.8589 6.92546 15.631 6.37207 15.395C5.71289 15.1183 5.07406 14.8254 4.45557 14.5161C3.83708 14.1987 3.27962 13.8325 2.7832 13.4175C2.28678 13.0024 1.89209 12.5142 1.59912 11.9526C1.31429 11.383 1.17188 10.7157 1.17188 9.95068C1.17188 9.20199 1.30615 8.52246 1.57471 7.91211C1.8514 7.30176 2.24202 6.78092 2.74658 6.34961C3.25114 5.91016 3.84115 5.57243 4.5166 5.33643C5.2002 5.10042 5.9611 4.98242 6.79932 4.98242C7.93864 4.98242 8.92334 5.21842 9.75342 5.69043C10.5916 6.16243 11.2386 6.80941 11.6943 7.63135C12.1582 8.45329 12.3901 9.3973 12.3901 10.4634H8.82568C8.82568 9.95882 8.75244 9.5153 8.60596 9.13281C8.46761 8.74219 8.24382 8.43701 7.93457 8.21729C7.62533 7.99756 7.22656 7.8877 6.73828 7.8877C6.28255 7.8877 5.90413 7.98128 5.60303 8.16846C5.31006 8.34749 5.09033 8.5957 4.94385 8.91309C4.8055 9.22233 4.73633 9.57227 4.73633 9.96289C4.73633 10.2559 4.8055 10.5203 4.94385 10.7563C5.09033 10.9842 5.28971 11.1917 5.54199 11.3789C5.79427 11.5579 6.09131 11.7329 6.43311 11.9038C6.78304 12.0747 7.16553 12.2415 7.58057 12.4043C8.38623 12.7217 9.09831 13.0716 9.7168 13.4541C10.3353 13.8285 10.8521 14.2516 11.2671 14.7236C11.6821 15.1875 11.9954 15.7124 12.207 16.2983C12.4186 16.8843 12.5244 17.5516 12.5244 18.3003C12.5244 19.0409 12.3942 19.7163 12.1338 20.3267C11.8815 20.9289 11.5112 21.4497 11.0229 21.8892C10.5347 22.3205 9.94466 22.6541 9.25293 22.8901C8.56934 23.1261 7.80436 23.2441 6.95801 23.2441C6.13607 23.2441 5.35889 23.1302 4.62646 22.9023C3.89404 22.6663 3.24707 22.3123 2.68555 21.8403C2.13216 21.3602 1.69678 20.7539 1.37939 20.0215C1.06201 19.2809 0.90332 18.4061 0.90332 17.397H4.47998C4.47998 17.9341 4.53288 18.3939 4.63867 18.7764C4.74447 19.1507 4.90723 19.4518 5.12695 19.6797C5.34668 19.8994 5.61523 20.0662 5.93262 20.1802C6.25814 20.286 6.62842 20.3389 7.04346 20.3389C7.51546 20.3389 7.88981 20.2493 8.1665 20.0703C8.45133 19.8913 8.65479 19.6512 8.77686 19.3501C8.89893 19.049 8.95996 18.7072 8.95996 18.3247ZM18.2129 12.5264V23H14.7827V9.79199H18.0054L18.2129 12.5264ZM17.7246 15.9443L16.7847 15.9688C16.7684 15.041 16.8498 14.1865 17.0288 13.4053C17.2078 12.624 17.4764 11.9445 17.8345 11.3667C18.2007 10.7889 18.6605 10.3413 19.2139 10.0239C19.7673 9.70654 20.4142 9.54785 21.1548 9.54785C21.6349 9.54785 22.0785 9.63737 22.4854 9.81641C22.8923 9.9873 23.2463 10.2599 23.5474 10.6343C23.8485 11.0005 24.0804 11.4806 24.2432 12.0747C24.4059 12.6606 24.4873 13.3646 24.4873 14.1865V23H21.0693V14.6016C21.0693 14.0156 21.0124 13.568 20.8984 13.2588C20.7845 12.9414 20.6217 12.7217 20.4102 12.5996C20.1986 12.4694 19.9382 12.4043 19.6289 12.4043C19.3034 12.4043 19.0186 12.4938 18.7744 12.6729C18.5303 12.8519 18.3309 13.1042 18.1763 13.4297C18.0298 13.7471 17.9159 14.1214 17.8345 14.5527C17.7612 14.984 17.7246 15.4479 17.7246 15.9443ZM24.1577 15.6025L22.9248 15.7612C22.9085 14.8905 22.9858 14.0807 23.1567 13.332C23.3276 12.5752 23.5921 11.916 23.9502 11.3545C24.3083 10.7848 24.7559 10.3413 25.293 10.0239C25.8382 9.70654 26.4689 9.54785 27.1851 9.54785C27.7222 9.54785 28.2104 9.63737 28.6499 9.81641C29.0894 9.99544 29.4637 10.2843 29.7729 10.6831C30.0903 11.0737 30.3304 11.5905 30.4932 12.2334C30.6641 12.8763 30.7495 13.6576 30.7495 14.5771V23H27.3193V14.5894C27.3193 13.9953 27.2624 13.5396 27.1484 13.2222C27.0345 12.9048 26.8717 12.6891 26.6602 12.5752C26.4486 12.4613 26.1963 12.4043 25.9033 12.4043C25.6104 12.4043 25.354 12.4857 25.1343 12.6484C24.9227 12.8112 24.7437 13.0391 24.5972 13.332C24.4507 13.6169 24.3408 13.9546 24.2676 14.3452C24.1943 14.7277 24.1577 15.1468 24.1577 15.6025ZM39.1479 19.9604V13.8569C39.1479 13.4582 39.0991 13.1408 39.0015 12.9048C38.9119 12.6688 38.7736 12.4979 38.5864 12.3921C38.4074 12.2782 38.1877 12.2212 37.9272 12.2212C37.6343 12.2212 37.3901 12.2822 37.1948 12.4043C36.9995 12.5264 36.853 12.7013 36.7554 12.9292C36.6659 13.1571 36.6211 13.4297 36.6211 13.7471H33.1909C33.1909 13.1774 33.3008 12.6403 33.5205 12.1357C33.7402 11.623 34.0617 11.1755 34.4849 10.793C34.9162 10.4023 35.4289 10.0972 36.0229 9.87744C36.617 9.65771 37.2843 9.54785 38.0249 9.54785C38.9038 9.54785 39.6851 9.6984 40.3687 9.99951C41.0522 10.2925 41.5934 10.7604 41.9922 11.4033C42.391 12.0462 42.5903 12.8804 42.5903 13.9058V19.7896C42.5903 20.5301 42.627 21.1323 42.7002 21.5962C42.7816 22.0601 42.8996 22.4588 43.0542 22.7925V23H39.6118C39.4572 22.6338 39.3392 22.1781 39.2578 21.6328C39.1846 21.0794 39.1479 20.522 39.1479 19.9604ZM39.563 14.9312L39.5752 16.9819H38.3179C37.9924 16.9819 37.7075 17.0348 37.4634 17.1406C37.2274 17.2464 37.028 17.397 36.8652 17.5923C36.7025 17.7795 36.5804 17.9992 36.499 18.2515C36.4258 18.5037 36.3892 18.7723 36.3892 19.0571C36.3892 19.3745 36.4339 19.6431 36.5234 19.8628C36.613 20.0825 36.7472 20.2493 36.9263 20.3633C37.1053 20.4772 37.3169 20.5342 37.561 20.5342C37.9354 20.5342 38.2609 20.4569 38.5376 20.3022C38.8143 20.1476 39.0177 19.9604 39.1479 19.7407C39.2863 19.521 39.3311 19.3175 39.2822 19.1304L40.0635 20.4609C39.9658 20.762 39.8315 21.0754 39.6606 21.4009C39.4979 21.7264 39.2904 22.0275 39.0381 22.3042C38.7858 22.5809 38.4725 22.8088 38.0981 22.9878C37.7319 23.1587 37.2965 23.2441 36.792 23.2441C36.084 23.2441 35.437 23.0814 34.8511 22.7559C34.2651 22.4303 33.8013 21.9746 33.4595 21.3887C33.1258 20.8027 32.959 20.1069 32.959 19.3013C32.959 18.634 33.0648 18.0317 33.2764 17.4946C33.4961 16.9494 33.8216 16.4896 34.2529 16.1152C34.6842 15.7327 35.2295 15.4398 35.8887 15.2363C36.5479 15.0329 37.321 14.9312 38.208 14.9312H39.563ZM48.5352 12.7339V23H45.1172V9.79199H48.3398L48.5352 12.7339ZM51.6479 9.69434L51.5991 13.1001C51.4445 13.0675 51.2573 13.0431 51.0376 13.0269C50.826 13.0106 50.6388 13.0024 50.4761 13.0024C50.0936 13.0024 49.7681 13.0635 49.4995 13.1855C49.231 13.2995 49.0072 13.4744 48.8281 13.7104C48.6572 13.9383 48.527 14.2231 48.4375 14.5649C48.348 14.9067 48.2951 15.2933 48.2788 15.7246L47.6318 15.4805C47.6318 14.6178 47.6969 13.8285 47.8271 13.1123C47.9655 12.388 48.1689 11.7614 48.4375 11.2324C48.7061 10.6953 49.0275 10.2803 49.4019 9.9873C49.7843 9.69434 50.2157 9.54785 50.6958 9.54785C50.8586 9.54785 51.0295 9.56413 51.2085 9.59668C51.3957 9.62109 51.5422 9.65365 51.6479 9.69434ZM59.7656 9.79199V12.3677H53.0273V9.79199H59.7656ZM54.5776 6.53271H57.9834V18.9717C57.9834 19.3379 58.02 19.6187 58.0933 19.814C58.1665 20.0093 58.2764 20.1476 58.4229 20.229C58.5775 20.3022 58.7809 20.3389 59.0332 20.3389C59.2041 20.3389 59.3628 20.3307 59.5093 20.3145C59.6558 20.29 59.7656 20.2656 59.8389 20.2412V22.9146C59.5703 23.0203 59.2855 23.1017 58.9844 23.1587C58.6914 23.2157 58.3415 23.2441 57.9346 23.2441C57.251 23.2441 56.6569 23.1139 56.1523 22.8535C55.6559 22.5931 55.2694 22.1781 54.9927 21.6084C54.716 21.0306 54.5776 20.2738 54.5776 19.3379V6.53271ZM72.2412 23H69.104L69.1284 20.0459H72.2412C73.1038 20.0459 73.7752 19.8913 74.2554 19.582C74.7355 19.2728 75.0732 18.7845 75.2686 18.1172C75.472 17.4499 75.5737 16.575 75.5737 15.4927V12.7217C75.5737 11.8997 75.5208 11.2039 75.415 10.6343C75.3092 10.0565 75.1302 9.59261 74.8779 9.24268C74.6257 8.8846 74.2879 8.62012 73.8647 8.44922C73.4416 8.27832 72.9167 8.19287 72.29 8.19287H69.043V5.22656H72.29C73.3154 5.22656 74.2472 5.39339 75.0854 5.72705C75.9237 6.06071 76.6439 6.54899 77.2461 7.19189C77.8483 7.82666 78.3122 8.61198 78.6377 9.54785C78.9632 10.4837 79.126 11.5498 79.126 12.7461V15.4927C79.126 16.6971 78.9632 17.7632 78.6377 18.6909C78.3122 19.6187 77.8483 20.404 77.2461 21.0469C76.652 21.6816 75.9318 22.1659 75.0854 22.4995C74.2391 22.8332 73.291 23 72.2412 23ZM71.1792 5.22656V23H67.6025V5.22656H71.1792ZM86.8896 23.2441C85.9863 23.2441 85.1847 23.1058 84.4849 22.8291C83.7931 22.5524 83.2072 22.1536 82.7271 21.6328C82.2469 21.1038 81.8807 20.465 81.6284 19.7163C81.3761 18.9676 81.25 18.1131 81.25 17.1528V16.0664C81.25 14.9922 81.3721 14.0522 81.6162 13.2466C81.8604 12.4328 82.2062 11.7492 82.6538 11.1958C83.1014 10.6424 83.6507 10.2314 84.3018 9.96289C84.9609 9.6862 85.7056 9.54785 86.5356 9.54785C87.3657 9.54785 88.0941 9.6862 88.7207 9.96289C89.3555 10.2314 89.8804 10.6383 90.2954 11.1836C90.7104 11.7207 91.0238 12.388 91.2354 13.1855C91.4469 13.9831 91.5527 14.9108 91.5527 15.9688V17.5312H82.7026V15.1265H88.1958V14.8213C88.1958 14.2842 88.1388 13.8366 88.0249 13.4785C87.911 13.1123 87.7319 12.8397 87.4878 12.6606C87.2437 12.4816 86.9181 12.3921 86.5112 12.3921C86.1694 12.3921 85.8805 12.4613 85.6445 12.5996C85.4085 12.738 85.2214 12.9536 85.083 13.2466C84.9447 13.5396 84.8429 13.922 84.7778 14.394C84.7127 14.8579 84.6802 15.4154 84.6802 16.0664V17.1528C84.6802 17.7632 84.7331 18.2759 84.8389 18.6909C84.9447 19.0978 85.0993 19.4315 85.3027 19.6919C85.5143 19.9442 85.7707 20.1273 86.0718 20.2412C86.3729 20.347 86.7228 20.3999 87.1216 20.3999C87.7238 20.3999 88.265 20.2941 88.7451 20.0825C89.2334 19.8628 89.6484 19.5658 89.9902 19.1914L91.3574 21.2666C91.1214 21.5758 90.7959 21.8851 90.3809 22.1943C89.9658 22.5036 89.4694 22.7559 88.8916 22.9512C88.3138 23.1465 87.6465 23.2441 86.8896 23.2441ZM97.2534 20.3633L99.3774 9.79199H102.942L99.3164 23H97.1802L97.2534 20.3633ZM95.9961 9.79199L98.1567 20.3755L98.1934 23H96.0449L92.4194 9.79199H95.9961ZM108.179 9.79199V23H104.749V9.79199H108.179ZM104.59 6.37402C104.59 5.84505 104.757 5.40967 105.09 5.06787C105.432 4.71794 105.888 4.54297 106.458 4.54297C107.035 4.54297 107.491 4.71794 107.825 5.06787C108.158 5.40967 108.325 5.84505 108.325 6.37402C108.325 6.89486 108.154 7.33024 107.812 7.68018C107.479 8.02197 107.031 8.19287 106.47 8.19287C105.892 8.19287 105.432 8.02197 105.09 7.68018C104.757 7.33024 104.59 6.89486 104.59 6.37402ZM115.662 20.3999C115.979 20.3999 116.252 20.3348 116.479 20.2046C116.715 20.0744 116.895 19.8628 117.017 19.5698C117.139 19.2769 117.204 18.8984 117.212 18.4346H120.422C120.422 19.4274 120.211 20.286 119.788 21.0103C119.373 21.7264 118.811 22.2798 118.103 22.6704C117.403 23.0529 116.61 23.2441 115.723 23.2441C114.836 23.2441 114.062 23.1017 113.403 22.8169C112.744 22.5321 112.199 22.117 111.768 21.5718C111.344 21.0265 111.023 20.3633 110.803 19.582C110.592 18.7926 110.486 17.8893 110.486 16.8721V15.9077C110.486 14.9067 110.592 14.0116 110.803 13.2222C111.023 12.4328 111.344 11.7655 111.768 11.2202C112.199 10.675 112.74 10.2599 113.391 9.9751C114.05 9.69027 114.823 9.54785 115.71 9.54785C116.663 9.54785 117.489 9.74723 118.188 10.146C118.888 10.5366 119.434 11.1144 119.824 11.8794C120.223 12.6444 120.422 13.5884 120.422 14.7114H117.212C117.204 14.2069 117.143 13.7878 117.029 13.4541C116.923 13.1123 116.756 12.8519 116.528 12.6729C116.309 12.4857 116.016 12.3921 115.649 12.3921C115.267 12.3921 114.958 12.4735 114.722 12.6362C114.494 12.7909 114.319 13.0187 114.197 13.3198C114.083 13.6128 114.006 13.979 113.965 14.4185C113.924 14.8579 113.904 15.3543 113.904 15.9077V16.8721C113.904 17.4661 113.92 17.9829 113.953 18.4224C113.993 18.8537 114.071 19.2199 114.185 19.521C114.307 19.814 114.482 20.0337 114.709 20.1802C114.945 20.3267 115.263 20.3999 115.662 20.3999ZM127.71 23.2441C126.807 23.2441 126.005 23.1058 125.305 22.8291C124.613 22.5524 124.028 22.1536 123.547 21.6328C123.067 21.1038 122.701 20.465 122.449 19.7163C122.196 18.9676 122.07 18.1131 122.07 17.1528V16.0664C122.07 14.9922 122.192 14.0522 122.437 13.2466C122.681 12.4328 123.027 11.7492 123.474 11.1958C123.922 10.6424 124.471 10.2314 125.122 9.96289C125.781 9.6862 126.526 9.54785 127.356 9.54785C128.186 9.54785 128.914 9.6862 129.541 9.96289C130.176 10.2314 130.701 10.6383 131.116 11.1836C131.531 11.7207 131.844 12.388 132.056 13.1855C132.267 13.9831 132.373 14.9108 132.373 15.9688V17.5312H123.523V15.1265H129.016V14.8213C129.016 14.2842 128.959 13.8366 128.845 13.4785C128.731 13.1123 128.552 12.8397 128.308 12.6606C128.064 12.4816 127.738 12.3921 127.332 12.3921C126.99 12.3921 126.701 12.4613 126.465 12.5996C126.229 12.738 126.042 12.9536 125.903 13.2466C125.765 13.5396 125.663 13.922 125.598 14.394C125.533 14.8579 125.5 15.4154 125.5 16.0664V17.1528C125.5 17.7632 125.553 18.2759 125.659 18.6909C125.765 19.0978 125.92 19.4315 126.123 19.6919C126.335 19.9442 126.591 20.1273 126.892 20.2412C127.193 20.347 127.543 20.3999 127.942 20.3999C128.544 20.3999 129.085 20.2941 129.565 20.0825C130.054 19.8628 130.469 19.5658 130.811 19.1914L132.178 21.2666C131.942 21.5758 131.616 21.8851 131.201 22.1943C130.786 22.5036 130.29 22.7559 129.712 22.9512C129.134 23.1465 128.467 23.2441 127.71 23.2441Z" fill="white"/>
<path d="M2.56641 40.3086L4.28906 34.6602H5.80078L3.25781 41.9668C3.19922 42.123 3.12305 42.293 3.0293 42.4766C2.93555 42.6602 2.8125 42.834 2.66016 42.998C2.51172 43.166 2.32617 43.3008 2.10352 43.4023C1.88086 43.5078 1.61133 43.5605 1.29492 43.5605C1.16992 43.5605 1.04883 43.5488 0.931641 43.5254C0.818359 43.5059 0.710938 43.4844 0.609375 43.4609L0.603516 42.3828C0.642578 42.3867 0.689453 42.3906 0.744141 42.3945C0.802734 42.3984 0.849609 42.4004 0.884766 42.4004C1.11914 42.4004 1.31445 42.3711 1.4707 42.3125C1.62695 42.2578 1.75391 42.168 1.85156 42.043C1.95312 41.918 2.03906 41.75 2.10938 41.5391L2.56641 40.3086ZM1.59375 34.6602L3.09961 39.4062L3.35156 40.8945L2.37305 41.1465L0.0703125 34.6602H1.59375ZM10.377 39.2891L12.2637 34.6602H13.4883L10.8574 41H9.89648L7.27148 34.6602H8.49609L10.377 39.2891ZM8.13281 34.6602V41H6.7207V34.6602H8.13281ZM12.6211 41V34.6602H14.0391V41H12.6211ZM19.9512 37.3086V38.4219H16.6699V37.3086H19.9512ZM17.0801 34.6602V41H15.668V34.6602H17.0801ZM20.9707 34.6602V41H19.5586V34.6602H20.9707ZM23.5254 36.6758H25.3945C25.9414 36.6758 26.4062 36.7676 26.7891 36.9512C27.1719 37.1348 27.4629 37.3906 27.6621 37.7188C27.8652 38.043 27.9668 38.4141 27.9668 38.832C27.9668 39.1406 27.9102 39.4277 27.7969 39.6934C27.6836 39.9551 27.5156 40.1836 27.293 40.3789C27.0742 40.5742 26.8047 40.7266 26.4844 40.8359C26.168 40.9453 25.8047 41 25.3945 41H22.5879V34.6602H24.0059V39.8809H25.3945C25.6758 39.8809 25.9004 39.832 26.0684 39.7344C26.2363 39.6367 26.3574 39.5098 26.4316 39.3535C26.5098 39.1973 26.5488 39.0312 26.5488 38.8555C26.5488 38.6758 26.5098 38.5059 26.4316 38.3457C26.3574 38.1855 26.2363 38.0547 26.0684 37.9531C25.9004 37.8516 25.6758 37.8008 25.3945 37.8008H23.5254V36.6758ZM30.4629 34.6602V41H29.0508V34.6602H30.4629ZM34.9277 41.1172C34.459 41.1172 34.0352 41.041 33.6562 40.8887C33.2812 40.7324 32.9609 40.5156 32.6953 40.2383C32.4336 39.9609 32.2324 39.6348 32.0918 39.2598C31.9512 38.8848 31.8809 38.4805 31.8809 38.0469V37.8125C31.8809 37.3164 31.9531 36.8672 32.0977 36.4648C32.2422 36.0625 32.4434 35.7188 32.7012 35.4336C32.959 35.1445 33.2637 34.9238 33.6152 34.7715C33.9668 34.6191 34.3477 34.543 34.7578 34.543C35.2109 34.543 35.6074 34.6191 35.9473 34.7715C36.2871 34.9238 36.5684 35.1387 36.791 35.416C37.0176 35.6895 37.1855 36.0156 37.2949 36.3945C37.4082 36.7734 37.4648 37.1914 37.4648 37.6484V38.252H32.5664V37.2383H36.0703V37.127C36.0625 36.873 36.0117 36.6348 35.918 36.4121C35.8281 36.1895 35.6895 36.0098 35.502 35.873C35.3145 35.7363 35.0645 35.668 34.752 35.668C34.5176 35.668 34.3086 35.7188 34.125 35.8203C33.9453 35.918 33.7949 36.0605 33.6738 36.248C33.5527 36.4355 33.459 36.6621 33.3926 36.9277C33.3301 37.1895 33.2988 37.4844 33.2988 37.8125V38.0469C33.2988 38.3242 33.3359 38.582 33.4102 38.8203C33.4883 39.0547 33.6016 39.2598 33.75 39.4355C33.8984 39.6113 34.0781 39.75 34.2891 39.8516C34.5 39.9492 34.7402 39.998 35.0098 39.998C35.3496 39.998 35.6523 39.9297 35.918 39.793C36.1836 39.6562 36.4141 39.4629 36.6094 39.2129L37.3535 39.9336C37.2168 40.1328 37.0391 40.3242 36.8203 40.5078C36.6016 40.6875 36.334 40.834 36.0176 40.9473C35.7051 41.0605 35.3418 41.1172 34.9277 41.1172ZM44.4961 34.6602V41H43.0781V34.6602H44.4961ZM46.5762 34.6602V35.7734H41.0332V34.6602H46.5762ZM49.8809 41.1172C49.4121 41.1172 48.9883 41.041 48.6094 40.8887C48.2344 40.7324 47.9141 40.5156 47.6484 40.2383C47.3867 39.9609 47.1855 39.6348 47.0449 39.2598C46.9043 38.8848 46.834 38.4805 46.834 38.0469V37.8125C46.834 37.3164 46.9062 36.8672 47.0508 36.4648C47.1953 36.0625 47.3965 35.7188 47.6543 35.4336C47.9121 35.1445 48.2168 34.9238 48.5684 34.7715C48.9199 34.6191 49.3008 34.543 49.7109 34.543C50.1641 34.543 50.5605 34.6191 50.9004 34.7715C51.2402 34.9238 51.5215 35.1387 51.7441 35.416C51.9707 35.6895 52.1387 36.0156 52.248 36.3945C52.3613 36.7734 52.418 37.1914 52.418 37.6484V38.252H47.5195V37.2383H51.0234V37.127C51.0156 36.873 50.9648 36.6348 50.8711 36.4121C50.7812 36.1895 50.6426 36.0098 50.4551 35.873C50.2676 35.7363 50.0176 35.668 49.7051 35.668C49.4707 35.668 49.2617 35.7188 49.0781 35.8203C48.8984 35.918 48.748 36.0605 48.627 36.248C48.5059 36.4355 48.4121 36.6621 48.3457 36.9277C48.2832 37.1895 48.252 37.4844 48.252 37.8125V38.0469C48.252 38.3242 48.2891 38.582 48.3633 38.8203C48.4414 39.0547 48.5547 39.2598 48.7031 39.4355C48.8516 39.6113 49.0312 39.75 49.2422 39.8516C49.4531 39.9492 49.6934 39.998 49.9629 39.998C50.3027 39.998 50.6055 39.9297 50.8711 39.793C51.1367 39.6562 51.3672 39.4629 51.5625 39.2129L52.3066 39.9336C52.1699 40.1328 51.9922 40.3242 51.7734 40.5078C51.5547 40.6875 51.2871 40.834 50.9707 40.9473C50.6582 41.0605 50.2949 41.1172 49.8809 41.1172ZM54.5977 34.6602L55.8047 36.7637L57.0352 34.6602H58.5879L56.666 37.7715L58.6641 41H57.1113L55.8223 38.8086L54.5332 41H52.9746L54.9668 37.7715L53.0508 34.6602H54.5977ZM63.8848 37.3086V38.4219H60.6035V37.3086H63.8848ZM61.0137 34.6602V41H59.6016V34.6602H61.0137ZM64.9043 34.6602V41H63.4922V34.6602H64.9043ZM66.1406 37.9004V37.7656C66.1406 37.3086 66.207 36.8848 66.3398 36.4941C66.4727 36.0996 66.6641 35.7578 66.9141 35.4688C67.168 35.1758 67.4766 34.9492 67.8398 34.7891C68.207 34.625 68.6211 34.543 69.082 34.543C69.5469 34.543 69.9609 34.625 70.3242 34.7891C70.6914 34.9492 71.002 35.1758 71.2559 35.4688C71.5098 35.7578 71.7031 36.0996 71.8359 36.4941C71.9688 36.8848 72.0352 37.3086 72.0352 37.7656V37.9004C72.0352 38.3574 71.9688 38.7812 71.8359 39.1719C71.7031 39.5625 71.5098 39.9043 71.2559 40.1973C71.002 40.4863 70.6934 40.7129 70.3301 40.877C69.9668 41.0371 69.5547 41.1172 69.0938 41.1172C68.6289 41.1172 68.2129 41.0371 67.8457 40.877C67.4824 40.7129 67.1738 40.4863 66.9199 40.1973C66.666 39.9043 66.4727 39.5625 66.3398 39.1719C66.207 38.7812 66.1406 38.3574 66.1406 37.9004ZM67.5527 37.7656V37.9004C67.5527 38.1855 67.582 38.4551 67.6406 38.709C67.6992 38.9629 67.791 39.1855 67.916 39.377C68.041 39.5684 68.2012 39.7188 68.3965 39.8281C68.5918 39.9375 68.8242 39.9922 69.0938 39.9922C69.3555 39.9922 69.582 39.9375 69.7734 39.8281C69.9688 39.7188 70.1289 39.5684 70.2539 39.377C70.3789 39.1855 70.4707 38.9629 70.5293 38.709C70.5918 38.4551 70.623 38.1855 70.623 37.9004V37.7656C70.623 37.4844 70.5918 37.2188 70.5293 36.9688C70.4707 36.7148 70.377 36.4902 70.248 36.2949C70.123 36.0996 69.9629 35.9473 69.7676 35.8379C69.5762 35.7246 69.3477 35.668 69.082 35.668C68.8164 35.668 68.5859 35.7246 68.3906 35.8379C68.1992 35.9473 68.041 36.0996 67.916 36.2949C67.791 36.4902 67.6992 36.7148 67.6406 36.9688C67.582 37.2188 67.5527 37.4844 67.5527 37.7656ZM77.3848 34.6602V35.7852H74.291V34.6602H77.3848ZM78.4922 34.6602V41H77.0801V34.6602H78.4922ZM73.9453 34.6602H75.3398L75.1699 37.7949C75.1465 38.2598 75.0996 38.6699 75.0293 39.0254C74.9629 39.377 74.873 39.6797 74.7598 39.9336C74.6465 40.1836 74.5078 40.3867 74.3438 40.543C74.1797 40.6992 73.9883 40.8145 73.7695 40.8887C73.5508 40.9629 73.3047 41 73.0312 41H72.5918L72.5859 39.8398L72.8086 39.8223C72.9531 39.8105 73.0781 39.7734 73.1836 39.7109C73.2891 39.6445 73.3789 39.5508 73.4531 39.4297C73.5312 39.3086 73.5938 39.1523 73.6406 38.9609C73.6914 38.7695 73.7305 38.543 73.7578 38.2812C73.7891 38.0195 73.8125 37.7148 73.8281 37.3672L73.9453 34.6602ZM79.7227 37.9004V37.7656C79.7227 37.3086 79.7891 36.8848 79.9219 36.4941C80.0547 36.0996 80.2461 35.7578 80.4961 35.4688C80.75 35.1758 81.0586 34.9492 81.4219 34.7891C81.7891 34.625 82.2031 34.543 82.6641 34.543C83.1289 34.543 83.543 34.625 83.9062 34.7891C84.2734 34.9492 84.584 35.1758 84.8379 35.4688C85.0918 35.7578 85.2852 36.0996 85.418 36.4941C85.5508 36.8848 85.6172 37.3086 85.6172 37.7656V37.9004C85.6172 38.3574 85.5508 38.7812 85.418 39.1719C85.2852 39.5625 85.0918 39.9043 84.8379 40.1973C84.584 40.4863 84.2754 40.7129 83.9121 40.877C83.5488 41.0371 83.1367 41.1172 82.6758 41.1172C82.2109 41.1172 81.7949 41.0371 81.4277 40.877C81.0645 40.7129 80.7559 40.4863 80.502 40.1973C80.248 39.9043 80.0547 39.5625 79.9219 39.1719C79.7891 38.7812 79.7227 38.3574 79.7227 37.9004ZM81.1348 37.7656V37.9004C81.1348 38.1855 81.1641 38.4551 81.2227 38.709C81.2812 38.9629 81.373 39.1855 81.498 39.377C81.623 39.5684 81.7832 39.7188 81.9785 39.8281C82.1738 39.9375 82.4062 39.9922 82.6758 39.9922C82.9375 39.9922 83.1641 39.9375 83.3555 39.8281C83.5508 39.7188 83.7109 39.5684 83.8359 39.377C83.9609 39.1855 84.0527 38.9629 84.1113 38.709C84.1738 38.4551 84.2051 38.1855 84.2051 37.9004V37.7656C84.2051 37.4844 84.1738 37.2188 84.1113 36.9688C84.0527 36.7148 83.959 36.4902 83.8301 36.2949C83.7051 36.0996 83.5449 35.9473 83.3496 35.8379C83.1582 35.7246 82.9297 35.668 82.6641 35.668C82.3984 35.668 82.168 35.7246 81.9727 35.8379C81.7812 35.9473 81.623 36.0996 81.498 36.2949C81.373 36.4902 81.2812 36.7148 81.2227 36.9688C81.1641 37.2188 81.1348 37.4844 81.1348 37.7656ZM91.0195 34.6602V35.7852H88.2539V41H86.8418V34.6602H91.0195ZM93.2988 38.9375L95.7891 34.6602H97.2012V41H95.7891V36.7168L93.2988 41H91.8867V34.6602H93.2988V38.9375ZM100.154 38.9375L102.645 34.6602H104.057V41H102.645V36.7168L100.154 41H98.7422V34.6602H100.154V38.9375Z" fill="#788891"/>
</symbol><symbol id="icon-mail" viewBox="0 0 19 14">
<path d="M16.6805 0H2.3234C1.0418 0 0 1.0087 0 2.24959V11.7504C0 12.9913 1.0418 14 2.3234 14H16.6766C17.9582 14 19 12.9913 19 11.7504V2.2534C19.0039 1.01251 17.9621 0 16.6805 0ZM17.9425 11.7504C17.9425 12.4241 17.3764 12.9723 16.6805 12.9723H2.3234C1.62756 12.9723 1.06145 12.4241 1.06145 11.7504V2.2534C1.06145 1.57966 1.62756 1.03154 2.3234 1.03154H16.6766C17.3724 1.03154 17.9385 1.57966 17.9385 2.2534V11.7504H17.9425Z" fill="#00B2FF"/>
<path d="M11.9827 6.88195L16.6295 2.84715C16.8457 2.65683 16.8654 2.33328 16.6688 2.12012C16.4723 1.91077 16.1381 1.89174 15.9179 2.08206L9.50992 7.65085L8.25977 6.56982C8.25584 6.56602 8.2519 6.56221 8.2519 6.5584C8.22439 6.53176 8.19687 6.50892 8.16542 6.48608L3.07831 2.07825C2.85816 1.88793 2.524 1.90696 2.32743 2.12012C2.13087 2.33328 2.15052 2.65683 2.37068 2.84715L7.07251 6.91621L2.39033 11.1604C2.17804 11.3545 2.16625 11.678 2.36674 11.8874C2.47289 11.994 2.61442 12.0511 2.75594 12.0511C2.88568 12.0511 3.01541 12.0054 3.11762 11.914L7.87057 7.60898L9.16004 8.72426C9.26225 8.8118 9.38805 8.85367 9.51385 8.85367C9.63965 8.85367 9.76939 8.808 9.86767 8.72045L11.1925 7.57091L15.9179 11.9178C16.0202 12.013 16.1538 12.0587 16.2836 12.0587C16.4251 12.0587 16.5627 12.0054 16.6688 11.8988C16.8693 11.6933 16.8615 11.3659 16.6492 11.1718L11.9827 6.88195Z" fill="#00B2FF"/>
</symbol><symbol id="icon-ok" viewBox="0 0 27 26">
<path d="M13.8512 10.957C14.8668 10.957 15.6568 10.1213 15.638 9.2113C15.6568 8.3013 14.8857 7.44702 13.87 7.44702C12.892 7.44702 12.0833 8.22702 12.0833 9.19273C12.0833 10.1584 12.8732 10.957 13.8512 10.957Z" fill="#CDCDCD"/>
<path d="M13.701 0C6.44113 0 0.5354 5.8314 0.5354 12.9999C0.5354 20.187 6.44113 25.9999 13.701 25.9999C20.9797 25.9999 26.8667 20.1685 26.8667 12.9999C26.8855 5.8314 20.9797 0 13.701 0ZM13.8891 4.9214C16.2589 4.9214 18.215 6.85282 18.1962 9.21138C18.1962 11.5885 16.2213 13.5014 13.8139 13.4642C11.4441 13.4271 9.54445 11.5142 9.54445 9.19281C9.54445 6.83425 11.4817 4.9214 13.8891 4.9214ZM18.7228 14.9499C18.7228 14.9871 18.704 15.0056 18.704 15.0428C18.6475 15.4142 18.4595 15.7114 18.1397 15.9156C17.9328 16.0456 17.7071 16.1756 17.4814 16.2871C16.9172 16.5656 16.3153 16.7885 15.6947 16.9371C15.6195 16.9556 15.6195 16.9556 15.6759 17.0113C16.0144 17.3456 16.3718 17.6985 16.7103 18.0328C17.1429 18.4599 17.5943 18.9056 18.0269 19.3328C18.6475 19.9456 18.4783 20.967 17.6883 21.3385C17.5567 21.4128 17.4062 21.4313 17.2558 21.4685C17.1805 21.4685 17.0865 21.4685 17.0112 21.4685C16.9924 21.4685 16.9736 21.4685 16.9736 21.4499C16.6727 21.4128 16.4282 21.2642 16.2025 21.0599C15.4502 20.317 14.679 19.5556 13.9267 18.8128C13.8703 18.7571 13.8703 18.7571 13.8139 18.8128C13.0427 19.5742 12.2904 20.317 11.5193 21.0785C11.3876 21.2085 11.256 21.3013 11.0867 21.3756C10.9739 21.4313 10.8422 21.4499 10.7294 21.4685C10.6541 21.4685 10.5789 21.4685 10.4849 21.4685C10.4472 21.4685 10.4284 21.4499 10.3908 21.4499C9.883 21.357 9.54445 21.0785 9.39399 20.5956C9.24352 20.1128 9.35637 19.6856 9.71373 19.3328C10.0335 19.017 10.3344 18.7199 10.6541 18.4042C11.1243 17.9399 11.5945 17.4756 12.0459 17.0299C12.1023 16.9742 12.1023 16.9742 12.0271 16.9556C12.0083 16.9556 11.9707 16.9371 11.9519 16.9371C11.1055 16.7328 10.3344 16.3985 9.60088 15.9528C9.16829 15.6742 8.9614 15.2656 9.01783 14.7642C9.11187 13.8356 10.1651 13.3342 10.9551 13.8356C11.1055 13.9285 11.2372 14.0028 11.4064 14.0771C12.2716 14.5042 13.1932 14.6899 14.1524 14.6342C14.6226 14.6156 15.0928 14.5228 15.563 14.3742C16.0144 14.2256 16.4094 14.0214 16.8232 13.7985C17.5003 13.4085 18.3842 13.7242 18.6475 14.4485C18.6852 14.5599 18.704 14.6528 18.7228 14.7642C18.7228 14.8199 18.7228 14.8756 18.7228 14.9499Z" fill="#CDCDCD"/>
</symbol><symbol id="icon-phone" viewBox="0 0 18 18">
<path d="M14.2333 11.1503C13.8642 10.7666 13.4191 10.5615 12.9473 10.5615C12.4794 10.5615 12.0304 10.7628 11.6462 11.1465L10.4439 12.3432C10.345 12.2901 10.2461 12.2407 10.151 12.1913C10.014 12.1229 9.88467 12.0583 9.77433 11.9899C8.64819 11.2757 7.62476 10.3449 6.64319 9.14066C6.16762 8.54041 5.84804 8.03514 5.61596 7.52227C5.92793 7.23735 6.21708 6.94102 6.49861 6.6561C6.60514 6.54972 6.71167 6.43955 6.8182 6.33318C7.61715 5.53538 7.61715 4.50205 6.8182 3.70425L5.77955 2.66712C5.66161 2.54935 5.53987 2.42778 5.42573 2.30621C5.19746 2.07067 4.95777 1.82754 4.71047 1.59959C4.34143 1.23489 3.9001 1.04114 3.43595 1.04114C2.97179 1.04114 2.52286 1.23489 2.1424 1.59959C2.1386 1.60339 2.1386 1.60339 2.13479 1.60719L0.841243 2.91026C0.35426 3.39653 0.076528 3.98918 0.0156552 4.6768C-0.0756541 5.78612 0.251537 6.81945 0.502638 7.49568C1.11898 9.15586 2.03968 10.6945 3.41312 12.3432C5.07952 14.3301 7.08452 15.8991 9.37486 17.0046C10.2499 17.4187 11.4179 17.9088 12.7229 17.9924C12.8028 17.9962 12.8865 18 12.9626 18C13.8414 18 14.5795 17.6847 15.1578 17.0578C15.1616 17.0502 15.1692 17.0464 15.173 17.0388C15.3708 16.7995 15.5991 16.5829 15.8388 16.3512C16.0024 16.1954 16.1698 16.0321 16.3334 15.8611C16.71 15.4698 16.9079 15.014 16.9079 14.5467C16.9079 14.0756 16.7062 13.6235 16.322 13.2436L14.2333 11.1503ZM15.5953 15.1507C15.5915 15.1507 15.5915 15.1545 15.5953 15.1507C15.4469 15.3103 15.2947 15.4546 15.1311 15.6142C14.8838 15.8497 14.6327 16.0967 14.3969 16.374C14.0126 16.7843 13.5599 16.978 12.9664 16.978C12.9093 16.978 12.8484 16.978 12.7913 16.9742C11.6614 16.9021 10.6113 16.4614 9.82379 16.0853C7.67042 15.0443 5.77955 13.5665 4.20827 11.6936C2.91092 10.1322 2.04348 8.68857 1.46899 7.13857C1.11517 6.19262 0.985816 5.4556 1.04288 4.76038C1.08093 4.3159 1.25214 3.94739 1.56791 3.63207L2.86527 2.33661C3.05169 2.16185 3.24953 2.06687 3.44356 2.06687C3.68324 2.06687 3.87728 2.21124 3.99902 2.33281C4.00283 2.33661 4.00663 2.3404 4.01044 2.3442C4.24251 2.56075 4.46318 2.78489 4.69526 3.02423C4.8132 3.1458 4.93494 3.26737 5.05669 3.39273L6.09533 4.42987C6.49861 4.83256 6.49861 5.20487 6.09533 5.60757C5.985 5.71774 5.87847 5.82791 5.76814 5.93428C5.44856 6.261 5.14419 6.56492 4.8132 6.86124C4.80559 6.86884 4.79798 6.87264 4.79417 6.88024C4.46698 7.20695 4.52786 7.52607 4.59634 7.74262C4.60014 7.75401 4.60395 7.76541 4.60775 7.77681C4.87787 8.43024 5.25833 9.04568 5.83662 9.7789L5.84043 9.78269C6.89048 11.0744 7.99761 12.0811 9.21887 12.8523C9.37486 12.9511 9.53465 13.0309 9.68683 13.1068C9.82379 13.1752 9.95315 13.2398 10.0635 13.3082C10.0787 13.3158 10.0939 13.3272 10.1091 13.3348C10.2385 13.3994 10.3602 13.4298 10.4858 13.4298C10.8016 13.4298 10.9994 13.2322 11.0641 13.1676L12.3652 11.8684C12.4946 11.7392 12.7 11.5834 12.9397 11.5834C13.1756 11.5834 13.3696 11.7316 13.4876 11.8608C13.4914 11.8646 13.4914 11.8646 13.4952 11.8684L15.5915 13.9616C15.9834 14.3491 15.9834 14.748 15.5953 15.1507Z" fill="#00B2FF"/>
<path d="M9.72843 4.28169C10.7252 4.44885 11.6307 4.91992 12.3536 5.64174C13.0764 6.36355 13.5444 7.26772 13.7156 8.26307C13.7575 8.5138 13.9743 8.68856 14.2216 8.68856C14.252 8.68856 14.2787 8.68476 14.3091 8.68096C14.5907 8.63537 14.7771 8.36944 14.7314 8.08831C14.526 6.88402 13.9553 5.7861 13.0841 4.91613C12.2128 4.04615 11.1133 3.4763 9.90725 3.27115C9.62571 3.22556 9.3632 3.41171 9.31374 3.68904C9.26428 3.96637 9.4469 4.2361 9.72843 4.28169Z" fill="#00B2FF"/>
<path d="M17.9921 7.94018C17.6535 5.95709 16.7176 4.15255 15.2795 2.71652C13.8414 1.28049 12.0342 0.345932 10.0482 0.00781895C9.77051 -0.0415684 9.50799 0.148383 9.45853 0.425712C9.41288 0.70684 9.5993 0.968972 9.88084 1.01836C11.6538 1.31848 13.2707 2.15807 14.5566 3.43834C15.8426 4.72241 16.6796 6.33699 16.9801 8.10734C17.022 8.35808 17.2388 8.53283 17.4861 8.53283C17.5166 8.53283 17.5432 8.52903 17.5736 8.52523C17.8514 8.48344 18.0416 8.21751 17.9921 7.94018Z" fill="#00B2FF"/>
</symbol><symbol id="icon-stopwatch" viewBox="0 0 30 37">
<path d="M3.84612 11.9991L2.34001 10.4847C1.52177 9.66241 1.52177 8.32386 2.34001 7.50101C3.15825 6.67843 4.48973 6.67843 5.30797 7.50101L6.91603 9.1176C8.5935 7.94307 10.5057 7.13011 12.5092 6.73998V4.64204H11.11C10.7235 4.64204 10.4104 4.32719 10.4104 3.9387V2.11002C10.4104 0.946487 11.3518 0 12.5092 0H18.1063C19.2637 0 20.2052 0.946487 20.2052 2.11002V3.9387C20.2052 4.32719 19.892 4.64204 19.5055 4.64204H18.1063V6.73998C20.1095 7.12984 22.022 7.94307 23.6995 9.1176L25.3076 7.50101C26.1255 6.67843 27.457 6.67843 28.2755 7.50101C29.0938 8.32359 29.0938 9.66214 28.2755 10.4847L26.7694 11.9991C28.8571 14.6133 30 17.8695 30 21.2409C30 29.3851 23.409 36.011 15.3078 36.011C7.20654 36.011 0.615528 29.3851 0.615528 21.2409C0.615528 17.8695 1.75844 14.6133 3.84612 11.9991ZM4.31865 8.49558C4.04563 8.22139 3.60207 8.22166 3.32933 8.49558C3.05685 8.76977 3.05685 9.21595 3.32933 9.49015L4.77505 10.9433C5.10081 10.607 5.44243 10.2863 5.79771 9.98276L4.31865 8.49558ZM18.8059 2.11002C18.8059 1.72208 18.4922 1.40668 18.1063 1.40668H12.5092C12.1234 1.40668 11.8096 1.72208 11.8096 2.11002V3.23536H18.8059V2.11002ZM13.9085 4.64204V6.53722C14.8358 6.44985 15.7795 6.44985 16.707 6.53722V4.64204H13.9085ZM27.2862 8.49558C27.0135 8.22166 26.5696 8.22139 26.2969 8.49558L24.8178 9.98276C25.1731 10.2863 25.5147 10.607 25.8405 10.9433L27.2862 9.49015C27.5587 9.21595 27.5587 8.76977 27.2862 8.49558ZM15.3078 34.6043C22.6375 34.6043 28.6007 28.6095 28.6007 21.2409C28.6007 17.9904 27.4269 14.8586 25.2958 12.4219C24.7088 11.7507 24.0537 11.1375 23.3489 10.5985C21.5826 9.24727 19.4919 8.35793 17.3028 8.02632C16.6477 7.92769 15.9765 7.87741 15.3078 7.87741C14.639 7.87741 13.9678 7.92769 13.313 8.02632C11.1236 8.35793 9.03296 9.24727 7.26639 10.5985C6.56184 11.1375 5.90676 11.7507 5.31972 12.4219C3.18858 14.8586 2.01479 17.9904 2.01479 21.2409C2.01479 28.6095 7.97804 34.6043 15.3078 34.6043Z" fill="#00B2FF"/>
<path d="M15.3074 23.3508C14.15 23.3508 13.2085 22.4043 13.2085 21.2408C13.2085 20.324 13.7933 19.542 14.6077 19.2516V14.2074C14.6077 13.8189 14.9209 13.504 15.3074 13.504C15.6938 13.504 16.007 13.8189 16.007 14.2074V19.2516C16.8214 19.542 17.4062 20.324 17.4062 21.2408C17.4062 22.4043 16.4648 23.3508 15.3074 23.3508ZM15.3074 20.5374C14.9215 20.5374 14.6077 20.8528 14.6077 21.2408C14.6077 21.6287 14.9215 21.9441 15.3074 21.9441C15.6932 21.9441 16.007 21.6287 16.007 21.2408C16.007 20.8528 15.6932 20.5374 15.3074 20.5374Z" fill="#00B2FF"/>
<path d="M7.85482 13.8205C7.86575 13.8076 7.87668 13.7947 7.88898 13.7826C7.9021 13.7692 7.91603 13.7571 7.92997 13.745C9.16307 12.5185 10.6864 11.6111 12.3396 11.1204C12.7104 11.0105 13.0993 11.2231 13.2086 11.5957C13.3179 11.9682 13.1064 12.3595 12.7358 12.4694C11.5109 12.8331 10.3683 13.4617 9.39428 14.3011L9.86625 14.7755C10.1393 15.0503 10.1393 15.4956 9.86625 15.7704C9.72961 15.9078 9.5506 15.9764 9.37132 15.9764C9.19231 15.9764 9.01331 15.9078 8.87666 15.7704L8.40359 15.2948C7.1377 16.7746 6.38587 18.5961 6.23938 20.5374H6.91223C7.29866 20.5374 7.61186 20.8526 7.61186 21.2408C7.61186 21.6293 7.29866 21.9441 6.91223 21.9441H6.23938C6.38587 23.8857 7.1377 25.707 8.40359 27.1868L8.87666 26.7112C9.14995 26.4367 9.59296 26.4367 9.86625 26.7112C10.1395 26.9859 10.1395 27.4313 9.86625 27.706L9.39318 28.1816C10.8651 29.4542 12.6771 30.21 14.6082 30.3576V29.6809C14.6082 29.2924 14.9214 28.9775 15.3078 28.9775C15.6942 28.9775 16.0074 29.2924 16.0074 29.6809V30.3573C17.9385 30.21 19.7504 29.4542 21.2224 28.1816L20.7493 27.706C20.476 27.4313 20.476 26.9859 20.7493 26.7112C21.0226 26.4367 21.4656 26.4367 21.7389 26.7112L22.212 27.1868C23.4779 25.707 24.2297 23.8854 24.3762 21.9441H23.7034C23.3169 21.9441 23.0037 21.6293 23.0037 21.2408C23.0037 20.8523 23.3169 20.5374 23.7034 20.5374H24.3762C24.2297 18.5961 23.4779 16.7746 22.212 15.2948L21.7389 15.7704C21.6023 15.9078 21.4233 15.9764 21.2443 15.9764C21.065 15.9764 20.886 15.9078 20.7493 15.7704C20.4763 15.4956 20.4763 15.0503 20.7493 14.7755L21.2213 14.3011C20.2473 13.4615 19.1047 12.8331 17.8798 12.4694C17.5092 12.3595 17.2976 11.9682 17.407 11.5957C17.5163 11.2231 17.9049 11.0108 18.276 11.1204C19.9289 11.6108 21.4517 12.518 22.6845 13.7439C22.699 13.7563 22.7132 13.7689 22.7266 13.7824C22.7386 13.7944 22.7493 13.8071 22.7602 13.8197C24.7222 15.8105 25.8022 18.4436 25.8022 21.2408C25.8022 24.0377 24.7222 26.6705 22.7608 28.661C22.7498 28.6739 22.7389 28.6868 22.7266 28.6989C22.7146 28.7113 22.702 28.722 22.6894 28.733C20.7092 30.7051 18.0902 31.7909 15.3078 31.7909C12.5257 31.7909 9.9067 30.7054 7.92669 28.7335C7.91385 28.7223 7.901 28.7113 7.88898 28.6989C7.87695 28.6871 7.86629 28.6742 7.85536 28.6618C5.89339 26.6711 4.81334 24.0379 4.81334 21.2408C4.81334 18.4439 5.89339 15.811 7.85482 13.8205Z" fill="#00B2FF"/>
<path d="M15.3077 12.0974C14.9215 12.0974 14.6081 11.7822 14.6081 11.394C14.6081 11.0058 14.9215 10.6907 15.3077 10.6907C15.6939 10.6907 16.0073 11.0058 16.0073 11.394C16.0073 11.7822 15.6939 12.0974 15.3077 12.0974Z" fill="#00B2FF"/>
</symbol><symbol id="icon-tag" viewBox="0 0 33 32">
<path d="M10.7945 8.43992C10.6776 8.323 10.5155 8.25574 10.3502 8.25574C10.1849 8.25574 10.0227 8.323 9.90583 8.43992C9.78899 8.55684 9.72168 8.71902 9.72168 8.88434C9.72168 9.04966 9.78893 9.21185 9.90583 9.32877C10.0227 9.44575 10.1849 9.51295 10.3502 9.51295C10.5155 9.51295 10.6776 9.44569 10.7945 9.32877C10.9114 9.21185 10.9787 9.04966 10.9787 8.88434C10.9787 8.71902 10.9114 8.55684 10.7945 8.43992Z" fill="#00B2FF"/>
<path d="M32.6111 2.61363L31.8339 1.83982L32.6108 1.06715C32.8563 0.823046 32.8563 0.427236 32.6108 0.183075C32.3653 -0.0610248 31.9675 -0.0610248 31.7219 0.183075L30.9455 0.955253L30.1798 0.192763C30.0619 0.0754958 29.9021 0.0094858 29.7355 0.0094233L19.0977 0.00354741C19.0971 0.00354741 19.0965 0.00354741 19.0959 0.00354741C18.2559 0.00354741 17.4662 0.328846 16.8722 0.919623L11.5638 6.19917C11.3184 6.44327 11.3184 6.83908 11.5638 7.08324C11.8093 7.32734 12.2071 7.32734 12.4527 7.08324L17.7611 1.80369C18.1177 1.44902 18.5917 1.2538 19.0959 1.2538C19.0963 1.2538 19.0967 1.2538 19.097 1.2538L29.4744 1.25955L30.0568 1.83939L27.7247 4.15874C26.7358 3.56965 25.4321 3.6981 24.5809 4.54461C24.0946 5.02831 23.8268 5.67134 23.8268 6.35532C23.8268 7.0393 24.0946 7.68233 24.5809 8.16603C25.0828 8.66523 25.7422 8.91483 26.4015 8.91483C27.0608 8.91483 27.7201 8.66523 28.2221 8.16603C29.072 7.32071 29.202 6.02664 28.6128 5.04362L30.9452 2.72396L31.5378 3.31411L31.5321 13.6211C31.5317 14.1222 31.3354 14.5933 30.9791 14.9477L15.642 30.2013C15.2855 30.5559 14.8114 30.7512 14.3072 30.7512C13.803 30.7512 13.3289 30.5559 12.9724 30.2013L2.42522 19.7114C2.0686 19.3568 1.87225 18.8853 1.87225 18.3838C1.87225 17.8824 2.0686 17.4109 2.42522 17.0562L9.20017 10.3181C9.4456 10.074 9.4456 9.67819 9.20017 9.43403C8.95468 9.18993 8.55683 9.18993 8.31127 9.43403L1.53632 16.1722C0.942374 16.7629 0.615234 17.5484 0.615234 18.3838C0.615234 19.2193 0.942374 20.0048 1.53632 20.5955L12.0835 31.0854C12.6966 31.6951 13.5018 32 14.3072 32C15.1126 32 15.9178 31.6951 16.5309 31.0854L31.8679 15.8316C32.4614 15.2413 32.7885 14.4565 32.789 13.6217L32.7949 3.0557C32.795 2.88992 32.7289 2.7309 32.6111 2.61363ZM27.3332 7.2819C27.0843 7.52943 26.7534 7.66577 26.4015 7.66577C26.0495 7.66577 25.7187 7.52943 25.4698 7.2819C24.956 6.77094 24.956 5.93951 25.4698 5.42855C25.7267 5.17302 26.064 5.04531 26.4015 5.04531C26.5286 5.04531 26.6556 5.0635 26.7785 5.09975L26.053 5.82124C25.8076 6.06534 25.8076 6.46115 26.053 6.70531C26.1758 6.82739 26.3366 6.8884 26.4974 6.8884C26.6583 6.8884 26.8191 6.82739 26.9419 6.70531L27.6653 5.98582C27.7959 6.43083 27.6854 6.93165 27.3332 7.2819Z" fill="#00B2FF"/>
<path d="M27.4632 13.2023L20.1386 5.87659C19.1683 4.90615 17.5895 4.90627 16.6193 5.87659L5.02826 17.4694C4.5582 17.9395 4.29932 18.5645 4.29932 19.2293C4.29932 19.8941 4.55814 20.5192 5.0282 20.9893L12.3528 28.3149C12.8229 28.7851 13.4478 29.044 14.1125 29.044C14.7772 29.044 15.4022 28.7851 15.8721 28.315L27.4632 16.7221C27.9333 16.252 28.1921 15.6271 28.1921 14.9622C28.1921 14.2974 27.9333 13.6724 27.4632 13.2023ZM26.5743 15.8331L14.9833 27.4261C14.7507 27.6587 14.4414 27.7868 14.1125 27.7868C13.7837 27.7868 13.4744 27.6587 13.2418 27.426L5.9171 20.1003C5.68449 19.8677 5.5564 19.5584 5.5564 19.2294C5.55634 18.9004 5.68449 18.5911 5.9171 18.3585L17.5082 6.76562C17.7483 6.52549 18.0636 6.40543 18.379 6.40543C18.6943 6.40543 19.0097 6.52556 19.2497 6.76562L26.5743 14.0913C26.8069 14.324 26.935 14.6332 26.935 14.9622C26.935 15.2912 26.8069 15.6005 26.5743 15.8331Z" fill="#00B2FF"/>
<path d="M21.1098 13.1218C21.3553 12.8764 21.3553 12.4783 21.1098 12.2328C20.8643 11.9873 20.4665 11.9873 20.2209 12.2328L19.859 12.5948C18.8927 11.9978 17.6528 12.0779 16.869 12.8617C16.412 13.3188 16.1782 13.9395 16.2106 14.6094C16.242 15.2563 16.5205 15.8739 16.9949 16.3483C16.9949 16.3484 16.995 16.3484 16.995 16.3485C17.5005 16.8543 17.5569 17.6207 17.1208 18.057C16.6844 18.4933 15.918 18.4368 15.4123 17.9311C14.9066 17.4253 14.8501 16.6587 15.2864 16.2224C15.5318 15.9769 15.5318 15.5789 15.2864 15.3333C15.0409 15.0879 14.643 15.0879 14.3975 15.3333C13.6137 16.1172 13.5337 17.3573 14.1306 18.3239L13.7012 18.7533C13.4557 18.9987 13.4557 19.3968 13.7012 19.6423C13.8242 19.7652 13.9851 19.8265 14.1459 19.8265C14.3068 19.8265 14.4676 19.7651 14.5903 19.6424L15.02 19.2127C15.4422 19.4735 15.9165 19.6056 16.3823 19.6056C16.9825 19.6056 17.5684 19.3873 18.0097 18.946C18.9359 18.0196 18.8796 16.456 17.8843 15.4599C17.8841 15.4597 17.884 15.4596 17.8838 15.4594C17.6308 15.2063 17.4825 14.8829 17.4662 14.5485C17.4512 14.2372 17.5547 13.9539 17.7579 13.7508C18.1941 13.3144 18.9604 13.3709 19.4662 13.8765C19.4662 13.8765 19.4662 13.8766 19.4663 13.8767C19.4664 13.8767 19.4664 13.8767 19.4664 13.8767C19.972 14.3826 20.0284 15.149 19.5921 15.5853C19.3467 15.8308 19.3467 16.2288 19.5921 16.4743C19.7149 16.5971 19.8757 16.6584 20.0365 16.6584C20.1974 16.6584 20.3582 16.5971 20.481 16.4743C21.2647 15.6904 21.3448 14.4503 20.7479 13.4838L21.1098 13.1218Z" fill="#00B2FF"/>
<path d="M14.7493 23.5431L11.5212 20.3145C11.2758 20.0692 10.8779 20.0691 10.6323 20.3145C10.3869 20.56 10.3869 20.958 10.6323 21.2035L13.8605 24.4322C13.9832 24.5549 14.1441 24.6163 14.3049 24.6163C14.4657 24.6163 14.6266 24.5549 14.7493 24.4322C14.9947 24.1867 14.9947 23.7887 14.7493 23.5431Z" fill="#00B2FF"/>
<path d="M9.79888 18.5923C9.68204 18.4755 9.52045 18.4081 9.35458 18.4081C9.18929 18.4081 9.02776 18.4754 8.91023 18.5923C8.79333 18.7092 8.72607 18.8714 8.72607 19.0374C8.72607 19.2027 8.79326 19.3649 8.91023 19.4818C9.02713 19.5987 9.18929 19.666 9.35458 19.666C9.52051 19.666 9.68204 19.5987 9.79888 19.4818C9.91641 19.3643 9.98366 19.2027 9.98366 19.0374C9.98366 18.8714 9.91641 18.7099 9.79888 18.5923Z" fill="#00B2FF"/>
</symbol><symbol id="icon-vk" viewBox="0 0 27 26">
<path d="M19.475 15.1271C18.3662 14.1029 18.287 14.1029 19.2374 12.9211C20.4254 11.4243 22.0095 9.53349 20.5838 9.53349H17.9701C17.4949 9.53349 17.4157 9.84862 17.2573 10.2425C16.6237 11.7394 15.3565 13.709 14.8812 13.3938C14.406 13.0787 14.6436 11.897 14.6436 10.0062C14.7228 9.76984 14.6436 9.53349 14.4852 9.37592C14.3268 9.21836 14.0892 9.06079 13.8516 9.06079C13.4556 8.98201 13.0596 8.90323 12.6636 8.90323C11.1587 8.90323 10.1291 9.53349 10.6835 9.61227C11.7131 9.76984 11.6339 11.9758 11.3963 12.9211C11.0003 14.5756 9.41624 11.6606 8.70342 10.1638C8.62421 9.76984 8.3074 9.53349 7.91139 9.53349H5.85212C5.53531 9.53349 5.2977 9.61227 5.2977 9.84862C5.2977 10.2425 7.27777 14.1029 9.09943 16.0725C10.9211 17.9632 12.7428 17.8057 14.01 17.8057C14.1684 17.8057 14.3268 17.7269 14.406 17.6481C14.4852 17.5693 14.5644 17.4118 14.5644 17.2542C14.5644 15.9937 15.0396 15.3634 15.9109 16.23C16.8613 17.1754 17.0989 17.8057 18.287 17.8057H20.4254C20.9799 17.8057 21.1383 17.6481 21.1383 17.4118C21.2175 16.8603 20.267 15.8361 19.475 15.1271ZM13.8516 0.000789162C21.2175 0.158354 27.0785 6.06705 26.9993 13.2363C26.9201 20.4055 20.8214 26.0778 13.4556 25.9991C6.01052 25.9203 0.0703125 20.1691 0.0703125 12.9999C0.149515 5.75192 6.32733 -0.0779935 13.8516 0.000789162Z" fill="#CDCDCD"/>
</symbol></svg>